<mxfile host="app.diagrams.net" modified="2024-03-20T13:26:41.130Z" agent="Mozilla/5.0 (X11; Linux x86_64; rv:124.0) Gecko/20100101 Firefox/124.0" etag="nMyD21__vakxCoOlqIDe" version="24.0.7" type="device">
  <diagram name="Page-1" id="bPGUvEEB3Vf6GTBfTzAH">
    <mxGraphModel dx="2714" dy="1510" grid="1" gridSize="10" guides="1" tooltips="1" connect="1" arrows="1" fold="1" page="1" pageScale="1" pageWidth="850" pageHeight="1100" math="0" shadow="0">
      <root>
        <mxCell id="0" />
        <mxCell id="1" parent="0" />
        <mxCell id="0vxN2St8hOb4Arx_2QqC-3" value="" style="shape=actor;whiteSpace=wrap;html=1;" vertex="1" parent="1">
          <mxGeometry x="130" y="310" width="50" height="60" as="geometry" />
        </mxCell>
        <mxCell id="0vxN2St8hOb4Arx_2QqC-4" value="" style="shape=actor;whiteSpace=wrap;html=1;" vertex="1" parent="1">
          <mxGeometry x="330" y="310" width="50" height="60" as="geometry" />
        </mxCell>
        <mxCell id="0vxN2St8hOb4Arx_2QqC-8" value="" style="endArrow=classic;html=1;rounded=0;strokeColor=#FFFFFF;" edge="1" parent="1">
          <mxGeometry width="50" height="50" relative="1" as="geometry">
            <mxPoint x="200" y="330" as="sourcePoint" />
            <mxPoint x="320" y="330" as="targetPoint" />
          </mxGeometry>
        </mxCell>
        <mxCell id="0vxN2St8hOb4Arx_2QqC-10" value="" style="endArrow=classic;html=1;rounded=0;strokeColor=#FFFFFF;" edge="1" parent="1">
          <mxGeometry width="50" height="50" relative="1" as="geometry">
            <mxPoint x="320" y="350" as="sourcePoint" />
            <mxPoint x="200" y="350" as="targetPoint" />
          </mxGeometry>
        </mxCell>
        <mxCell id="0vxN2St8hOb4Arx_2QqC-11" value="" style="shape=actor;whiteSpace=wrap;html=1;" vertex="1" parent="1">
          <mxGeometry x="550" y="310" width="50" height="60" as="geometry" />
        </mxCell>
        <mxCell id="0vxN2St8hOb4Arx_2QqC-12" value="" style="shape=actor;whiteSpace=wrap;html=1;" vertex="1" parent="1">
          <mxGeometry x="750" y="310" width="50" height="60" as="geometry" />
        </mxCell>
        <mxCell id="0vxN2St8hOb4Arx_2QqC-13" value="" style="endArrow=classic;html=1;rounded=0;strokeColor=#FFFFFF;" edge="1" parent="1">
          <mxGeometry width="50" height="50" relative="1" as="geometry">
            <mxPoint x="620" y="330" as="sourcePoint" />
            <mxPoint x="740" y="330" as="targetPoint" />
          </mxGeometry>
        </mxCell>
        <mxCell id="0vxN2St8hOb4Arx_2QqC-14" value="" style="endArrow=classic;html=1;rounded=0;strokeColor=#FFFFFF;" edge="1" parent="1">
          <mxGeometry width="50" height="50" relative="1" as="geometry">
            <mxPoint x="740" y="350" as="sourcePoint" />
            <mxPoint x="620" y="350" as="targetPoint" />
          </mxGeometry>
        </mxCell>
        <mxCell id="0vxN2St8hOb4Arx_2QqC-15" value="" style="shape=actor;whiteSpace=wrap;html=1;" vertex="1" parent="1">
          <mxGeometry x="660" y="170" width="50" height="60" as="geometry" />
        </mxCell>
        <mxCell id="0vxN2St8hOb4Arx_2QqC-16" value="" style="shape=actor;whiteSpace=wrap;html=1;" vertex="1" parent="1">
          <mxGeometry x="660" y="430" width="50" height="60" as="geometry" />
        </mxCell>
        <mxCell id="0vxN2St8hOb4Arx_2QqC-20" value="" style="endArrow=classic;html=1;rounded=0;strokeColor=#FFFFFF;" edge="1" parent="1">
          <mxGeometry width="50" height="50" relative="1" as="geometry">
            <mxPoint x="760" y="380" as="sourcePoint" />
            <mxPoint x="720" y="440" as="targetPoint" />
          </mxGeometry>
        </mxCell>
        <mxCell id="0vxN2St8hOb4Arx_2QqC-22" value="" style="endArrow=classic;html=1;rounded=0;strokeColor=#FFFFFF;" edge="1" parent="1">
          <mxGeometry width="50" height="50" relative="1" as="geometry">
            <mxPoint x="730" y="450" as="sourcePoint" />
            <mxPoint x="770" y="390" as="targetPoint" />
          </mxGeometry>
        </mxCell>
        <mxCell id="0vxN2St8hOb4Arx_2QqC-23" value="" style="endArrow=classic;html=1;rounded=0;strokeColor=#FFFFFF;" edge="1" parent="1">
          <mxGeometry width="50" height="50" relative="1" as="geometry">
            <mxPoint x="594" y="390" as="sourcePoint" />
            <mxPoint x="634" y="450" as="targetPoint" />
          </mxGeometry>
        </mxCell>
        <mxCell id="0vxN2St8hOb4Arx_2QqC-24" value="" style="endArrow=classic;html=1;rounded=0;strokeColor=#FFFFFF;" edge="1" parent="1">
          <mxGeometry width="50" height="50" relative="1" as="geometry">
            <mxPoint x="650" y="450" as="sourcePoint" />
            <mxPoint x="610" y="390" as="targetPoint" />
          </mxGeometry>
        </mxCell>
        <mxCell id="0vxN2St8hOb4Arx_2QqC-25" value="" style="endArrow=classic;html=1;rounded=0;strokeColor=#FFFFFF;" edge="1" parent="1">
          <mxGeometry width="50" height="50" relative="1" as="geometry">
            <mxPoint x="640" y="240" as="sourcePoint" />
            <mxPoint x="600" y="300" as="targetPoint" />
          </mxGeometry>
        </mxCell>
        <mxCell id="0vxN2St8hOb4Arx_2QqC-26" value="" style="endArrow=classic;html=1;rounded=0;strokeColor=#FFFFFF;" edge="1" parent="1">
          <mxGeometry width="50" height="50" relative="1" as="geometry">
            <mxPoint x="616" y="300" as="sourcePoint" />
            <mxPoint x="656" y="240" as="targetPoint" />
          </mxGeometry>
        </mxCell>
        <mxCell id="0vxN2St8hOb4Arx_2QqC-28" value="" style="endArrow=classic;html=1;rounded=0;strokeColor=#FFFFFF;" edge="1" parent="1">
          <mxGeometry width="50" height="50" relative="1" as="geometry">
            <mxPoint x="750" y="300" as="sourcePoint" />
            <mxPoint x="710" y="240" as="targetPoint" />
          </mxGeometry>
        </mxCell>
        <mxCell id="0vxN2St8hOb4Arx_2QqC-29" value="" style="endArrow=classic;html=1;rounded=0;strokeColor=#FFFFFF;" edge="1" parent="1">
          <mxGeometry width="50" height="50" relative="1" as="geometry">
            <mxPoint x="726" y="240" as="sourcePoint" />
            <mxPoint x="766" y="300" as="targetPoint" />
          </mxGeometry>
        </mxCell>
        <mxCell id="0vxN2St8hOb4Arx_2QqC-32" value="" style="shape=actor;whiteSpace=wrap;html=1;" vertex="1" parent="1">
          <mxGeometry x="1100" y="160" width="50" height="60" as="geometry" />
        </mxCell>
        <mxCell id="0vxN2St8hOb4Arx_2QqC-34" value="" style="shape=actor;whiteSpace=wrap;html=1;" vertex="1" parent="1">
          <mxGeometry x="1050" y="310" width="50" height="60" as="geometry" />
        </mxCell>
        <mxCell id="0vxN2St8hOb4Arx_2QqC-35" value="" style="shape=actor;whiteSpace=wrap;html=1;" vertex="1" parent="1">
          <mxGeometry x="1150" y="310" width="50" height="60" as="geometry" />
        </mxCell>
        <mxCell id="0vxN2St8hOb4Arx_2QqC-36" value="" style="shape=actor;whiteSpace=wrap;html=1;" vertex="1" parent="1">
          <mxGeometry x="1250" y="310" width="50" height="60" as="geometry" />
        </mxCell>
        <mxCell id="0vxN2St8hOb4Arx_2QqC-37" value="" style="shape=actor;whiteSpace=wrap;html=1;" vertex="1" parent="1">
          <mxGeometry x="950" y="310" width="50" height="60" as="geometry" />
        </mxCell>
        <mxCell id="0vxN2St8hOb4Arx_2QqC-38" value="" style="endArrow=classic;html=1;rounded=0;strokeColor=#FFFFFF;" edge="1" parent="1">
          <mxGeometry width="50" height="50" relative="1" as="geometry">
            <mxPoint x="1120" y="230" as="sourcePoint" />
            <mxPoint x="1010" y="300" as="targetPoint" />
          </mxGeometry>
        </mxCell>
        <mxCell id="0vxN2St8hOb4Arx_2QqC-39" value="" style="endArrow=classic;html=1;rounded=0;strokeColor=#FFFFFF;" edge="1" parent="1">
          <mxGeometry width="50" height="50" relative="1" as="geometry">
            <mxPoint x="1130" y="230" as="sourcePoint" />
            <mxPoint x="1230" y="300" as="targetPoint" />
          </mxGeometry>
        </mxCell>
        <mxCell id="0vxN2St8hOb4Arx_2QqC-40" value="" style="endArrow=classic;html=1;rounded=0;strokeColor=#FFFFFF;" edge="1" parent="1">
          <mxGeometry width="50" height="50" relative="1" as="geometry">
            <mxPoint x="1120" y="230" as="sourcePoint" />
            <mxPoint x="1100" y="300" as="targetPoint" />
          </mxGeometry>
        </mxCell>
        <mxCell id="0vxN2St8hOb4Arx_2QqC-42" value="" style="endArrow=classic;html=1;rounded=0;strokeColor=#FFFFFF;" edge="1" parent="1">
          <mxGeometry width="50" height="50" relative="1" as="geometry">
            <mxPoint x="1130" y="230" as="sourcePoint" />
            <mxPoint x="1150" y="300" as="targetPoint" />
          </mxGeometry>
        </mxCell>
      </root>
    </mxGraphModel>
  </diagram>
</mxfile>
